<svg width="25" height="22" viewBox="0 0 25 22" fill="none" xmlns="http://www.w3.org/2000/svg">
<g clip-path="url(#clip0)">
<path d="M2.77902 3C2.77902 2.30964 3.33867 1.75 4.02902 1.75H19.029C19.7194 1.75 20.279 2.30964 20.279 3V19.7837C20.279 20.8834 18.9426 21.4679 18.1279 20.7025C16.8493 19.5013 15.4236 18.1823 14.2636 17.1617C13.6848 16.6526 13.1635 16.2099 12.7557 15.8916C12.5534 15.7336 12.3661 15.5961 12.2068 15.4946C12.128 15.4444 12.0414 15.3936 11.9538 15.3527C11.8913 15.3236 11.7287 15.25 11.529 15.25C11.3294 15.25 11.1667 15.3236 11.1043 15.3527C11.0166 15.3936 10.93 15.4444 10.8512 15.4946C10.6919 15.5961 10.5046 15.7336 10.3023 15.8916C9.89459 16.2099 9.37319 16.6526 8.79449 17.1617C7.63443 18.1823 6.20878 19.5013 4.93019 20.7025C4.11546 21.4679 2.77902 20.8834 2.77902 19.7837V3Z" stroke="#252F3F" stroke-width="1.5"/>
</g>
<defs>
<clipPath id="clip0">
<rect width="19" height="21" fill="white" transform="translate(2.02902 1)"/>
</clipPath>
</defs>
</svg>
