<svg width="26" height="22" viewBox="0 0 26 22" fill="none" xmlns="http://www.w3.org/2000/svg">
<path d="M12.529 1.5625C18.5349 1.5625 23.4665 5.41992 23.4665 10.1562C23.4665 14.8926 18.5349 18.75 12.529 18.75C11.113 18.75 9.74583 18.5547 8.42747 18.1641L7.69505 17.9199L7.06028 18.3594C5.93723 19.1406 4.22825 20.0684 2.07981 20.3125C2.66575 19.5801 3.49583 18.3105 4.03294 16.8945L4.37473 15.9668L3.73997 15.2832C2.32395 13.7695 1.59153 12.0117 1.59153 10.1562C1.59153 5.41992 6.47434 1.5625 12.529 1.5625ZM12.529 0C5.59544 0 0.0290319 4.58984 0.0290319 10.1562C0.0290319 12.5 0.956766 14.6484 2.56809 16.3574C1.8845 18.2617 0.370829 19.9219 0.322001 19.9219C-0.0197962 20.2637 -0.0686243 20.752 0.07786 21.1914C0.273173 21.6309 0.712626 21.875 1.15208 21.875C4.17942 21.875 6.52317 20.6543 7.98802 19.6289C9.40403 20.0684 10.9177 20.3125 12.529 20.3125C19.4138 20.3125 25.029 15.7715 25.029 10.1562C25.029 4.58984 19.4138 0 12.529 0Z" fill="#252F3F"/>
</svg>
