<svg width="24" height="21" viewBox="0 0 24 21" fill="none" xmlns="http://www.w3.org/2000/svg">
<path d="M23.8594 9.25781L12.9375 0.351562C12.7031 0.164062 12.2812 0.0234375 11.9531 0.0234375C11.6719 0.0234375 11.25 0.164062 11.0156 0.351562L0.140625 9.25781C0.046875 9.30469 0 9.44531 0 9.53906C0 9.58594 0 9.72656 0.046875 9.77344L0.515625 10.3359C0.609375 10.4297 0.75 10.4766 0.84375 10.4766C0.890625 10.4766 0.984375 10.4297 1.07812 10.3828L3 8.83594V20.2266C3 20.6484 3.32812 20.9766 3.75 20.9766H9.75C10.125 20.9766 10.5 20.6484 10.5 20.2266V14.2266H13.5V20.2266C13.5 20.6484 13.8281 20.9766 14.25 20.9766H20.25C20.625 20.9766 21 20.6484 21 20.2266V8.83594L22.875 10.3828C22.9688 10.4297 23.0625 10.4766 23.1094 10.4766C23.25 10.4766 23.3438 10.4297 23.4375 10.3359L23.9062 9.77344C23.9531 9.72656 23.9531 9.58594 23.9531 9.53906C23.9531 9.44531 23.9062 9.30469 23.8594 9.25781Z" fill="#252F3F"/>
</svg>
