<svg width="26" height="24" viewBox="0 0 26 24" fill="none" xmlns="http://www.w3.org/2000/svg">
<path d="M22.6562 2.95312C20.0781 0.796875 16.2812 1.125 13.8906 3.60938L13 4.54688L12.0625 3.60938C10.1406 1.64062 6.29688 0.421875 3.29688 2.95312C0.34375 5.48438 0.203125 9.98438 2.82812 12.7031L11.9219 22.0781C12.2031 22.3594 12.5781 22.5 12.9531 22.5C13.375 22.5 13.75 22.3594 14.0312 22.0781L23.125 12.7031C25.75 9.98438 25.6094 5.48438 22.6562 2.95312ZM22.0469 11.6719L13 21.0469L3.90625 11.6719C2.125 9.79688 1.75 6.28125 4.28125 4.125C6.85938 1.92188 9.85938 3.51562 10.9844 4.64062L13 6.70312L14.9688 4.64062C16.0469 3.51562 19.0938 1.92188 21.6719 4.125C24.2031 6.28125 23.8281 9.79688 22.0469 11.6719Z" fill="#252F3F"/>
</svg>
