<svg width="73" height="72" viewBox="0 0 73 72" fill="none" xmlns="http://www.w3.org/2000/svg">
<circle cx="36.2149" cy="36" r="36" fill="url(#paint0_linear)"/>
<path d="M48.1368 31.2095H46.5037V26.3103C46.5037 20.6626 41.8087 15.9676 36.161 15.9676C30.4453 15.9676 25.8183 20.6626 25.8183 26.3103V31.2095H24.1852C22.348 31.2095 20.9191 32.7065 20.9191 34.4757V47.5402C20.9191 49.3774 22.348 50.8063 24.1852 50.8063H48.1368C49.906 50.8063 51.4029 49.3774 51.4029 47.5402V34.4757C51.4029 32.7065 49.906 31.2095 48.1368 31.2095ZM41.0602 31.2095H31.2618V26.3103C31.2618 23.6566 33.4392 21.4111 36.161 21.4111C38.8147 21.4111 41.0602 23.6566 41.0602 26.3103V31.2095Z" fill="#233876"/>
<defs>
<linearGradient id="paint0_linear" x1="52.5274" y1="2.8125" x2="15.4024" y2="68.625" gradientUnits="userSpaceOnUse">
<stop stop-color="#E3F5FF"/>
<stop offset="1" stop-color="#A8CFE4"/>
</linearGradient>
</defs>
</svg>
