<svg width="113" height="34" viewBox="0 0 113 34" fill="none" xmlns="http://www.w3.org/2000/svg">
<path d="M49.745 11.744V8.6604H39.9928V25.0126H43.2124V18.7053H49.5584V15.6218H43.2124V11.744H49.745Z" fill="#252F3F"/>
<path d="M60.4667 13.3325V14.7107C59.6268 13.6595 58.3669 13.0054 56.6638 13.0054C53.5608 13.0054 50.9945 15.6918 50.9945 19.1725C50.9945 22.6532 53.5608 25.3396 56.6638 25.3396C58.3669 25.3396 59.6268 24.6856 60.4667 23.6343V25.0126H63.4763V13.3325H60.4667ZM57.2237 22.4663C55.3806 22.4663 54.0041 21.1348 54.0041 19.1725C54.0041 17.2103 55.3806 15.8787 57.2237 15.8787C59.0902 15.8787 60.4667 17.2103 60.4667 19.1725C60.4667 21.1348 59.0902 22.4663 57.2237 22.4663Z" fill="#252F3F"/>
<path d="M72.3414 13.0054C70.7782 13.0054 69.565 13.5894 68.8651 14.6406V13.3325H65.8555V25.0126H68.8651V18.7053C68.8651 16.673 69.9617 15.8086 71.4315 15.8086C72.7846 15.8086 73.7412 16.6263 73.7412 18.2148V25.0126H76.7508V17.841C76.7508 14.7341 74.8144 13.0054 72.3414 13.0054Z" fill="#252F3F"/>
<path d="M95.0921 8.6604H91.7792L87.1131 16.3927L82.4236 8.6604H79.1107V25.0126H82.3303V14.4304L86.9264 21.9991H87.2997L91.8958 14.407V25.0126H95.0921V8.6604Z" fill="#252F3F"/>
<path d="M100.188 20.4106H108.984C109.054 20.0135 109.1 19.6164 109.1 19.1725C109.1 15.7386 106.651 13.0054 103.198 13.0054C99.535 13.0054 97.0386 15.6918 97.0386 19.1725C97.0386 22.6532 99.5116 25.3396 103.431 25.3396C105.671 25.3396 107.421 24.4286 108.517 22.8401L106.091 21.4385C105.578 22.1159 104.644 22.6065 103.478 22.6065C101.891 22.6065 100.608 21.9524 100.188 20.4106ZM100.142 18.0746C100.492 16.5795 101.588 15.7152 103.198 15.7152C104.458 15.7152 105.718 16.3927 106.091 18.0746H100.142Z" fill="#252F3F"/>
<path fill-rule="evenodd" clip-rule="evenodd" d="M31.7175 24.9322L32.2431 23.7429C33.1659 21.6556 33.6803 19.3426 33.6803 16.8988C33.6803 7.56583 26.1408 0 16.8402 0C7.53961 0 0 7.56583 0 16.8988C0 26.2317 7.53961 33.7976 16.8402 33.7976C19.924 33.7976 22.8033 32.9695 25.2819 31.525L26.586 30.7652L33.4849 32.3405L31.7175 24.9322ZM9.92899 25.1142L9.92309 25.1079C8.21181 23.2761 7.24628 21.1303 7.02326 18.6705C7.00712 18.4866 7.00218 18.2979 6.99725 18.1103C6.99623 18.0722 6.99523 18.0341 6.99415 17.9961C9.54396 15.4296 12.9706 13.8525 16.75 13.8525C20.5747 13.8525 24.0403 15.4712 26.5998 18.0964C26.493 20.853 25.5384 23.2119 23.7102 25.1661C21.7978 27.2102 19.536 28.2411 16.9215 28.272C14.2159 28.2478 11.8849 27.202 9.93494 25.1206L9.92899 25.1142Z" fill="url(#paint0_linear)"/>
<defs>
<linearGradient id="paint0_linear" x1="38.6471" y1="37.6827" x2="0.0439781" y2="2.87994" gradientUnits="userSpaceOnUse">
<stop stop-color="#0C3B83"/>
<stop offset="0.0001" stop-color="#09459E"/>
<stop offset="1" stop-color="#0066FF"/>
</linearGradient>
</defs>
</svg>
