<svg width="25" height="25" viewBox="0 0 25 25" fill="none" xmlns="http://www.w3.org/2000/svg">
<path d="M21.4153 1.69778L2.14874 12.7773C1.1596 13.3356 1.24561 14.7956 2.27775 15.2251L8.34156 17.7158V22.0961C8.34156 23.4274 9.93278 23.9856 10.7499 22.9979L13.3732 19.8201L18.792 22.0531C19.6091 22.3967 20.5552 21.8814 20.6842 20.9796L23.4366 3.07198C23.6086 1.95544 22.4044 1.09657 21.4153 1.69778ZM9.71775 22.0961V18.317L12.0401 19.2618L9.71775 22.0961ZM19.351 20.8078L10.4488 17.1146L19.05 7.02281C19.265 6.76515 18.921 6.4216 18.6629 6.63632L7.69648 15.9981L2.83683 13.9797L22.1034 2.85726L19.351 20.8078Z" fill="#252F3F"/>
</svg>
