<svg width="16" height="16" viewBox="0 0 16 16" fill="none" xmlns="http://www.w3.org/2000/svg">
<path d="M13.5964 8.375H13.1277C12.9812 8.375 12.8933 8.49219 12.8933 8.60938V14.4688C12.8933 14.7324 12.6589 14.9375 12.4245 14.9375H2.11203C1.84836 14.9375 1.64328 14.7324 1.64328 14.4688V4.15625C1.64328 3.92188 1.84836 3.6875 2.11203 3.6875H7.97141C8.08859 3.6875 8.20578 3.59961 8.20578 3.45312V2.98438C8.20578 2.86719 8.08859 2.75 7.97141 2.75H2.11203C1.32101 2.75 0.70578 3.39453 0.70578 4.15625V14.4688C0.70578 15.2598 1.32101 15.875 2.11203 15.875H12.4245C13.1862 15.875 13.8308 15.2598 13.8308 14.4688V8.60938C13.8308 8.49219 13.7136 8.375 13.5964 8.375ZM14.7683 0.875H14.739L11.9265 0.904297C11.1062 0.904297 10.696 1.90039 11.282 2.48633L12.3073 3.54102L4.54367 11.3047C4.48508 11.3633 4.42648 11.4512 4.42648 11.5391C4.42648 11.627 4.48508 11.7441 4.54367 11.8027L4.77805 12.0371C4.83664 12.0957 4.95383 12.1543 5.04172 12.1543C5.12961 12.1543 5.2468 12.0957 5.27609 12.0371L13.0398 4.27344L14.0945 5.29883C14.6804 5.88477 15.6765 5.47461 15.6765 4.6543L15.7058 1.8418V1.8125C15.7058 1.31445 15.2663 0.875 14.7683 0.875ZM14.739 4.6543L11.9265 1.8418L14.7683 1.8125L14.739 4.6543Z" fill="white"/>
</svg>
